# xmcd
#
# Track frame offsets:
#	150
#	16612
#	34710
#	45040
#	55160
#	63882
#	75830
#	87457
#	100130
#	115570
#	126572
#	136747
#	149547
#	164632
#	180087
#	197237
#	215312
#	226505
#	237685
#	245157
#	261387
#	268780
#	277257
#
# Disc length: 3772 seconds
#
# Revision: 1
# Processed by: cddbd v1.5.1PL0 Copyright (c) Steve Scherf et al.
# Submitted via: audiograbber 1.83.01
#
DISCID=3e0eba17
DTITLE=Xrhstos Nikolopoulos - Laiko ksefantoma me ton Xrhsto Nikolopoulo#2
DYEAR=1900
DGENRE=Laika
TTITLE0=M.Dhmhtriadhs - Katse kala
TTITLE1=M.Dhmhtriadhs - Salonikios
TTITLE2=A.Moralh - Gia koita me sta matia
TTITLE3=E.Xaridou - Polles fores
TTITLE4=A.Moralh - Esy eisai h aitia pou ypoferw
TTITLE5=M.Dhmhtriadhs - Glykie mou tyranne
TTITLE6=M.Dhmhtriadhs - Taka-taka
TTITLE7=A.Moralh - To ploio tha salparei
TTITLE8=M.Dhmhtriadhs - Sta opa-opa s'eixa
TTITLE9=M.Dhmhtriadhs - Einai to kryo tsouxtero
TTITLE10=A.Moralh - Ta daxtylidia
TTITLE11=A.Moralh - Anthrwpoi eimaste
TTITLE12=E.Xaridou - Mia einai h ousia
TTITLE13=P.Theoxaridhs - Pote Voudas pote Koudas
TTITLE14=Solo Perpiniadh - Solo Perpiniadh
TTITLE15=M.Dhmhtriadhs - Apokoimhthika
TTITLE16=M.Dhmhtriadhs - Vrexei fwtia sth strata mou
TTITLE17=M.Dhmhtriadhs - Pou gyrnas
TTITLE18=M.Dhmhtriadhs - O mathiths
TTITLE19=M.Dhmhtriadhs - Me paresyre to rema
TTITLE20=M.Dhmhtriadhs - Naftaki Syriano
TTITLE21=M.Dhmhtriadhs - Emaste alania
TTITLE22=Solo Zampeta - Solo Zampeta
EXTD=
EXTT0=
EXTT1=
EXTT2=
EXTT3=
EXTT4=
EXTT5=
EXTT6=
EXTT7=
EXTT8=
EXTT9=
EXTT10=
EXTT11=
EXTT12=
EXTT13=
EXTT14=
EXTT15=
EXTT16=
EXTT17=
EXTT18=
EXTT19=
EXTT20=
EXTT21=
EXTT22=
PLAYORDER=
